<svg width="588" height="487" viewBox="0 0 588 487" version="1.1" xmlns="http://www.w3.org/2000/svg" xmlns:xlink="http://www.w3.org/1999/xlink">
<title>Group</title>
<desc>Created using Figma</desc>
<g id="Canvas" transform="translate(226 254)">
<g id="Group">
<g id="Rectangle">
<use xlink:href="#path0_fill" transform="translate(-226 -254)" fill="url(#paint0_linear)"/>
</g>
<g id="Ellipse">
<use xlink:href="#path1_fill" transform="translate(-226 30)" fill="url(#paint1_radial)"/>
</g>
<g id="Vector">
<use xlink:href="#path2_fill" transform="translate(7 29.9986)" fill="url(#paint2_linear)"/>
</g>
<g id="Vector" filter="url(#filter0_d)">
<use xlink:href="#path3_fill" transform="translate(-226 26)" fill="url(#paint3_linear)"/>
</g>
</g>
</g>
<defs>
<filter id="filter0_d" filterUnits="userSpaceOnUse" x="-244" y="6" width="626" height="245" color-interpolation-filters="sRGB">
<feFlood flood-opacity="0" result="BackgroundImageFix"/>
<feColorMatrix in="SourceAlpha" type="matrix" values="0 0 0 0 0 0 0 0 0 0 0 0 0 0 0 0 0 0 255 0"/>
<feOffset dx="1" dy="-1"/>
<feGaussianBlur stdDeviation="9.5"/>
<feColorMatrix type="matrix" values="0 0 0 0 0 0 0 0 0 0 0 0 0 0 0 0 0 0 0.25 0"/>
<feBlend mode="normal" in2="BackgroundImageFix" result="effect1_dropShadow"/>
<feBlend mode="normal" in="SourceGraphic" in2="effect1_dropShadow" result="shape"/>
</filter>
<linearGradient id="paint0_linear" x1="0" y1="0" x2="1" y2="0" gradientUnits="userSpaceOnUse" gradientTransform="matrix(49 179 -284.465 77.8702 453.232 -25.9351)">
<stop offset="0" stop-color="#E33C6A"/>
<stop offset="1" stop-color="#ED7774"/>
</linearGradient>
<radialGradient id="paint1_radial" cx="0.5" cy="0.5" r="0.5" gradientUnits="userSpaceOnUse" gradientTransform="matrix(158 42 -42.9921 161.732 19.4961 -37.8661)">
<stop offset="0.157701" stop-color="#D19A36"/>
<stop offset="0.732283" stop-color="#FFBA3D"/>
</radialGradient>
<linearGradient id="paint2_linear" x1="0" y1="0" x2="1" y2="0" gradientUnits="userSpaceOnUse" gradientTransform="matrix(281 50 -79.4374 446.439 160.718 -210.766)">
<stop offset="0" stop-color="#44427F"/>
<stop offset="0.480663" stop-color="#2A459A"/>
</linearGradient>
<linearGradient id="paint3_linear" x1="0" y1="0" x2="1" y2="0" gradientUnits="userSpaceOnUse" gradientTransform="matrix(491.812 -0.721268 2.08248 1055.88 -1.04124 -367.823)">
<stop offset="0.554469" stop-color="#2A459A"/>
<stop offset="1" stop-color="#44427F"/>
</linearGradient>
<path id="path0_fill" d="M 0 0L 588 0L 588 370L 0 370L 0 0Z"/>
<path id="path1_fill" d="M 130 63.5C 130 98.5701 100.899 127 65 127C 29.1015 127 0 98.5701 0 63.5C 0 28.4299 29.1015 0 65 0C 100.899 0 130 28.4299 130 63.5Z"/>
<path id="path2_fill" d="M 215 6.50139C 92.4448 57.317 37.6667 36.849 0 47.1824L 0 202.683L 354.5 202.683L 354.5 37.0014C 315 8.00133 256 -10.4986 215 6.50139Z"/>
<path id="path3_fill" d="M 293 31.5C 145.791 -12.4965 54.367 74.5749 0 89L 0 207L 588 207L 588 0C 577.405 37.2648 441.225 75.8002 293 31.5Z"/>
</defs>
</svg>
